PathFileType	4	(X/Y/Z)	pose_F01_0-90.trc
DataRate	CameraRate	NumFrames	NumMarkers	Units	OrigDataRate	OrigDataStartFrame	OrigNumFrames
30	30	8	21	m	30	45	90
Frame#	Time	CHip			RHip			RKnee			RAnkle			RBigToe			RSmallToe			RHeel			LHip			LKnee			LAnkle			LBigToe			LSmallToe			LHeel			Neck			Nose			RShoulder			RElbow			RWrist			LShoulder			LElbow			LWrist			
		X1	Y1	Z1	X2	Y2	Z2	X3	Y3	Z3	X4	Y4	Z4	X5	Y5	Z5	X6	Y6	Z6	X7	Y7	Z7	X8	Y8	Z8	X9	Y9	Z9	X10	Y10	Z10	X11	Y11	Z11	X12	Y12	Z12	X13	Y13	Z13	X14	Y14	Z14	X15	Y15	Z15	X16	Y16	Z16	X17	Y17	Z17	X18	Y18	Z18	X19	Y19	Z19	X20	Y20	Z20	X21	Y21	Z21	
45	1.5	-0.16333067346061161	1.8426649744479136	-0.6623149111514478	-0.1782520138340887	1.841434189722017	-0.6044666189960091	-0.19164643182014862	1.722899204204182	-0.5774571196591263										-0.19167942591948375	1.593815907848707	-0.5293354807101763	-0.14597986709915686	1.8429685293075746	-0.7257258142669544	-0.14842368310106893	1.724297265599665	-0.6869670528178422	-0.15264085445639144	1.608474265980033	-0.6660680497185569	-0.16898769565124117	1.581485282455244	-0.6886542860766881	-0.1558079622494677	1.5871560257390263	-0.7024080996229011	-0.148862427379195	1.5956164109781137	-0.6437175443718804	-0.1546978196626053	1.9865139963225382	-0.693315191069658	-0.16996396335108568	2.052505735548287	-0.7106984242764078	-0.18162489576397872	1.9844232499667906	-0.6078483685096142	-0.19526898746949742	1.9230158544085139	-0.5561055718504165	-0.22744232135137263	1.8918387931374991	-0.5535420061377707	-0.12245478496012077	1.9892293565722619	-0.778414114350666	-1.032348655566381	1.8387222590666303	0.10615408919734352	-1.044126305142453	1.8113846915739675	0.05876562216164295
46	1.5333333333333334	-0.16533513036041964	1.844633427835279	-0.6602092442413715	-0.18039208934113987	1.8445745589945128	-0.602415444584583	-0.1943384373075987	1.7242550676205217	-0.5787517728532378										-0.1912320646874766	1.594357637854458	-0.5298604523236514	-0.14812345105063815	1.8446755826513832	-0.7235486308675259	-0.150664757715083	1.7244531636502025	-0.6846447268437944	-0.15212111382566723	1.6071925577842945	-0.6623201980393698	-0.16900544151718527	1.5813252293731488	-0.6884995808584236	-0.15589957247972788	1.5844659005407864	-0.7020031605500836	-0.1492115504910153	1.5946530480416574	-0.6430605165707428	-0.15393043501137618	1.9865019050383923	-0.6902399033696949	-0.1699450397285365	2.052187069180905	-0.7107706785121327	-0.18160699857149962	1.9857426358644092	-0.6077211690715313	-0.19705289366718953	1.9227469871965064	-0.553621156003139	-0.22664766386701005	1.902245574334682	-0.5628939859975641	-0.12242610971321953	1.9890128701204681	-0.7783839641274043	-1.0550294165706864	1.8409174914371793	0.13382792928433287	-1.0702252609569731	1.8143794018502648	0.08351613524171475
47	1.5666666666666667	-0.16749207015868	1.8469706088892113	-0.6581885411713593	-0.18470388028942056	1.8454325770219238	-0.5980074137980601	-0.19522175363790362	1.7239728060316224	-0.5735907320637333										-0.1912320646874766	1.594357637854458	-0.5298604523236514	-0.15240617845273022	1.8459988735973036	-0.7191393400847284	-0.1528670654928815	1.724661886084874	-0.6823209329677395	-0.1512241126750701	1.6073025577857845	-0.6589499241717954	-0.16939123925920635	1.580001834569394	-0.6880603156726655	-0.15812107135267492	1.5843474362679886	-0.6998084965094808	-0.14885058167745793	1.592964090949252	-0.6432222524140604	-0.1560764992787697	1.9875998604303058	-0.6881957051329703	-0.16987272220538957	2.051016429050044	-0.7104467672797823	-0.18359992581663756	1.985997911896354	-0.6055513487161601	-0.19624660382165207	1.9243282085437365	-0.5507257402720561	-0.2263490808443031	1.9021464779313524	-0.5543237112404236	-0.12389685564624935	1.9886557348267877	-0.7731805816625833	-1.0717571377713908	1.8388476733818497	0.15495042606768994	-1.073042634055299	1.8153260895833965	0.08583991664767145
48	1.6	-0.1682077471707899	1.8429609743731614	-0.652555790965446	-0.18597876121861986	1.842239234114636	-0.5953338644352044	-0.19788498299278764	1.7159503944064127	-0.5656408687914242										-0.1912320646874766	1.594357637854458	-0.5298604523236514	-0.15350237792157212	1.8429857622041352	-0.7134367238033017	-0.15293693766147085	1.7214290842753046	-0.6818396320273316	-0.15327886825851275	1.603506924202898	-0.6566703592673667	-0.16889700219624354	1.5773228716675123	-0.6887586204649143	-0.156766646430349	1.5846455392726613	-0.7052167051467022	-0.15141627205740218	1.5918287212820457	-0.6404633059115951	-0.15741577693635825	1.9867398740145912	-0.6824625374180262	-0.16993505593785388	2.0510111627744347	-0.7103115615653723	-0.1835464994079331	1.987078295797065	-0.6054207157352129	-0.19827146350961064	1.923701937045913	-0.5396454044058955	-0.23322900059431637	1.903792662994035	-0.5596293835002165	-1.2148822044102665	1.8926391277467525	0.36176801324940994	-1.0840126702841064	1.8366203833234238	0.17161610627911997	-1.0796709312722486	1.81478538302085	0.0921634505640075
49	1.6333333333333333	-0.17259102855575417	1.8431390446890124	-0.64793993423831	-0.19031188029071122	1.8442804219127795	-0.5910066760553465	-0.2063301653145481	1.7124903933133302	-0.5561805418910446										-0.1912320646874766	1.594357637854458	-0.5298604523236514	-0.15353361284808903	1.8451869528085598	-0.7134507551015461	-0.15514478833487183	1.721289012770917	-0.6795366344481122	-0.15441640998705514	1.6046916749296392	-0.6595988941460421	-0.1698325523992057	1.5775871394746326	-0.6918899160010672	-0.15709577225092106	1.5834868131756894	-0.7047818307245585	-0.15141136936387758	1.5915046531756027	-0.6403447948647575	-0.16092119231190583	1.9862588051512569	-0.6746481872470935	-0.17139324431341776	2.0484225023315545	-0.7047495629433412	-0.18606763268101204	1.9865451643806615	-0.5945807319222103	-0.20497495169509827	1.92601617917878	-0.5358598281071371	-0.2412992114395032	1.9080605321994928	-0.5684887897422567	-0.13009551483456844	1.9860406177278136	-0.762573380026349	-1.119842738917869	1.8368585759167697	0.21926471909050715	-1.0972370933354798	1.814230421972985	0.10937718815048247
50	1.6666666666666667	-0.17632664471814222	1.8390034851470638	-0.6394103060847611	-0.19174318908729626	1.8385326231807049	-0.5845694057156423	-0.2063301653145481	1.7124903933133302	-0.5561805418910446										-0.1912320646874766	1.594357637854458	-0.5298604523236514	-0.1561770621163528	1.841242316716579	-0.7019768805037542	-0.1565852274463201	1.7120095078349857	-0.677141351286518	-0.15579276826309787	1.6020687771866766	-0.6538024636604889	-0.1678853630754334	1.5734073536645352	-0.6932530039355891	-0.15483561524183023	1.5835613776394606	-0.7070344195822487	-0.15571274013150077	1.5910062289288474	-0.6357101543296394	-0.16232835332893453	1.9856837424898035	-0.6692082037560405	-0.17707529736220012	2.0474279148700205	-0.6949212980297389	-1.6170856236165463	1.888650190870954	0.9637075779873431	-0.21082097354635218	1.9241818734022407	-0.5319258265520621	-0.2455102377512882	1.9061340957243131	-0.5723644196199379	-1.2571266953986489	1.8882605809688708	0.41149877427385506	-1.1187551622330454	1.8312906502654664	0.20989099052539695	-1.0824745952451778	1.8123594079440632	0.0647962356280414
51	1.7	-0.18138561407506462	1.8367533041211428	-0.6292507055633343	-0.1987633309747942	1.8369672013432359	-0.5702990980880258	-0.2063301653145481	1.7124903933133302	-0.5561805418910446										-0.1912320646874766	1.594357637854458	-0.5298604523236514	-0.16321626581526216	1.8378837522590943	-0.6862124397204786	-0.16519198014535677	1.7101917881277076	-0.6679278159791843	-0.15629007420648613	1.6018921599219609	-0.6529812882362686	-0.16560342915378123	1.5732387457941925	-0.6954252927662294	-0.15259776382331808	1.583709559042194	-0.7092744318315211	-0.15641640546876998	1.5918511500733954	-0.6348273742245765	-0.17235476324305446	1.9824667517561048	-0.6541931389009072	-0.18298367543602573	2.046670857614303	-0.6854567828745901	-0.19611745346632603	1.9831848210196878	-0.5712828839326209	-0.2166669953976061	1.9223475676257014	-0.5279918249969873	-0.257138489002169	1.9005858847291337	-0.5581028057083182	-1.3177852113232205	1.883744916734061	0.4971993052924184	-1.1431720027990444	1.8286947579865813	0.23335411013703797	-1.0473192529438438	1.8043409386668454	0.01531284027335653
52	1.7333333333333334	-0.19054482523939614	1.8346421815494602	-0.6192277422741197	-0.20578347286229212	1.8354017795057667	-0.5560287904604094	-0.2063301653145481	1.7124903933133302	-0.5561805418910446										-0.1912320646874766	1.594357637854458	-0.5298604523236514	-0.1695752353987562	1.836222432977596	-0.6755482889720638	-0.17013644576627043	1.7108985657696203	-0.6629021947891243	-0.15799213833916856	1.6041344555997699	-0.65984215780924	-0.16704131487497434	1.5736595056576002	-0.6900438953760358	-0.15568138884670457	1.5836807825441404	-0.7102100225488532	-0.15656802648845802	1.592222456794814	-0.6350603748742966	-0.17933729140924862	1.9833535404194462	-0.6389481079375909	-0.19105646048116376	2.0445951911018674	-0.6734779287167979	-0.20262392173725977	1.9822373438733667	-0.5559351571506309	-0.2255366617297215	1.9243671268471743	-0.5131539261099564	-0.2687667402530498	1.895037673733954	-0.5438411917966985	-0.14934955109527917	1.983830423793399	-0.7150491897189517	-1.1686825186571754	1.8281524423685351	0.2644534298617539	-1.0615560768922159	1.7979929585850312	0.03698511833083815
